<?xml version="1.0" encoding="utf-8"?>
<!-- Generator: Adobe Illustrator 24.0.0, SVG Export Plug-In . SVG Version: 6.00 Build 0)  -->
<svg version="1.1" id="Camada_1" xmlns="http://www.w3.org/2000/svg" xmlns:xlink="http://www.w3.org/1999/xlink" x="0px" y="0px"
	 viewBox="0 0 114.45 13.87" style="enable-background:new 0 0 114.45 13.87;" xml:space="preserve">
<style type="text/css">
	.st0{fill:#844F40;}
</style>
<g>
	<g>
		<g>
			<g>
				<path d="M52.92,12.1c-0.54,0-0.9-0.21-1.25-0.41c-0.66-0.38-1.25-0.63-2-0.63c-0.31,0-0.64,0.04-0.99,0.13l-0.79,0.2l0.59-0.56
					c0.52-0.5,1.25-0.93,2.07-1.39c0.9-0.51,1.84-1.05,2.57-1.8c0.99-1.02,1.48-2.07,1.48-3.2c0-2.33-1.9-4.23-4.24-4.23
					c-2.34,0-4.24,1.9-4.24,4.23c0,0.62,0.13,1.22,0.39,1.78c0.18,0.39,0.43,0.76,0.73,1.08l1.23-1.25
					c-0.15-0.17-0.27-0.36-0.36-0.56c-0.15-0.33-0.23-0.68-0.23-1.04c0-1.36,1.11-2.47,2.48-2.47c1.36,0,2.47,1.11,2.47,2.47
					c0,0.66-0.31,1.29-0.98,1.98c-0.56,0.58-1.35,1.03-2.18,1.5c-1.71,0.98-3.84,2.19-3.9,5.02l1.44,0.81
					c1.09-0.64,1.84-0.93,2.42-0.93c0.48,0,0.82,0.2,1.15,0.39c0.71,0.41,1.3,0.66,2.1,0.66c0.87,0,1.9-0.32,3.16-0.98l-0.84-1.54
					C54.22,11.86,53.49,12.1,52.92,12.1z"/>
			</g>
			<path class="st0" d="M45.38,1.75C45.38,1.17,45.37,0.58,45.39,0c-2.29,0.05-4.14,1.92-4.14,4.22c0,0.62,0.13,1.22,0.39,1.78
				c0.18,0.39,0.43,0.75,0.72,1.08l1.24-1.25c-0.15-0.17-0.27-0.36-0.37-0.56c-0.15-0.33-0.23-0.68-0.23-1.04
				C43.01,2.89,44.07,1.81,45.38,1.75z"/>
		</g>
		<g>
			<g>
				<path d="M3.72,6.51c-1.29-0.6-2.5-1.17-2.5-2.61c0-1.12,0.93-2.28,2.49-2.28c1.39,0,2.31,1,2.32,1.01l0.12,0.13l0.51-0.88
					L6.6,1.81C6.56,1.77,5.53,0.63,3.7,0.63c-2.15,0-3.44,1.67-3.44,3.29c0,2.04,1.52,2.76,3,3.46C4.62,8.04,5.9,8.65,5.9,10.27
					c0,1.34-0.96,2.28-2.33,2.28c-1.75,0-2.84-1.3-2.85-1.31l-0.1-0.12L0,11.89l0.06,0.08c0.05,0.06,1.27,1.56,3.48,1.56
					c1.96,0,3.33-1.36,3.33-3.31C6.87,7.98,5.2,7.2,3.72,6.51z"/>
			</g>
			<g>
				<polygon points="16.39,6.59 9.64,6.59 9.64,0.84 8.7,0.84 8.7,13.33 9.64,13.33 9.64,7.54 16.39,7.54 16.39,13.33 17.32,13.33 
					17.32,0.84 16.39,0.84 				"/>
			</g>
			<g>
				<path d="M24.88,0.63c-3.2,0-5.71,2.8-5.71,6.37c0,3.66,2.51,6.54,5.71,6.54c3.15,0,5.71-2.93,5.71-6.54
					C30.6,3.43,28.09,0.63,24.88,0.63z M24.88,12.57c-2.66,0-4.75-2.45-4.75-5.57c0-3.03,2.09-5.4,4.75-5.4
					c2.66,0,4.75,2.37,4.75,5.4C29.63,10.12,27.54,12.57,24.88,12.57z"/>
			</g>
			<g>
				<path d="M36.21,0.84h-3.76v12.49h0.94V8.26h2.82c2.06,0,3.49-1.53,3.49-3.73C39.7,2.33,38.3,0.84,36.21,0.84z M33.39,1.8h2.79
					c1.6,0,2.55,1.02,2.55,2.74c0,1.71-0.98,2.78-2.55,2.78h-2.79V1.8z"/>
			</g>
		</g>
		<g>
			<g>
				<path d="M63.51,8.42h2.09v2.07c-0.19,0.26-1.54,2.05-3.66,2.05c-2.6,0-4.57-2.36-4.57-5.49c0-3.12,2.01-5.48,4.66-5.48
					c2.03,0,3.34,1.19,3.35,1.21l0.11,0.1l0.56-0.79l-0.07-0.08c-0.06-0.06-1.42-1.42-3.94-1.42c-3.16,0-5.63,2.83-5.63,6.45
					c0,3.62,2.43,6.45,5.54,6.45c2.48,0,3.82-1.78,3.87-1.84c0.02-0.02,0.49-0.55,0.71-0.95l0.02-0.03V7.46h-2.35L63.51,8.42z"/>
			</g>
			<g>
				<polygon points="69.33,7.48 73.73,7.48 73.73,6.52 69.33,6.52 69.33,1.76 74.69,1.76 74.69,0.81 68.39,0.81 68.39,13.3 
					74.99,13.3 74.99,12.33 69.33,12.33 				"/>
			</g>
			<g>
				<polygon points="76.58,1.76 80.7,1.76 80.7,13.3 81.63,13.3 81.63,1.76 85.75,1.76 85.75,0.81 76.58,0.81 				"/>
			</g>
			<g>
				<polygon points="95.17,6.56 88.43,6.56 88.43,0.81 87.49,0.81 87.49,13.3 88.43,13.3 88.43,7.51 95.17,7.51 95.17,13.3 
					96.1,13.3 96.1,0.81 95.17,0.81 				"/>
			</g>
			<g>
				<polygon points="98.89,7.48 103.29,7.48 103.29,6.52 98.89,6.52 98.89,1.76 104.25,1.76 104.25,0.81 97.96,0.81 97.96,13.3 
					104.55,13.3 104.55,12.33 98.89,12.33 				"/>
			</g>
			<g>
				<path d="M113.8,12.37c-1.56,0-1.85-1.03-2.22-2.33c-0.21-0.77-0.45-1.64-1.05-2.26c0.15-0.03,0.25-0.05,0.25-0.05
					c1.38-0.33,2.31-1.73,2.31-3.49c0-1.38-0.58-2.49-1.6-3.05c-0.49-0.28-1.07-0.39-2.05-0.39h-3.36V13.3h0.93V7.88h1.51
					c1.55,0.05,1.84,1.09,2.21,2.39c0.37,1.33,0.83,2.98,3.06,2.98l0.64,0v-0.87L113.8,12.37z M107.02,1.76h2.4
					c0.86,0,1.19,0.08,1.49,0.23c0.76,0.38,1.22,1.22,1.22,2.25c0,1.63-0.88,2.68-2.23,2.68h-2.87V1.76z"/>
			</g>
		</g>
	</g>
</g>
</svg>
