<?xml version="1.0" encoding="utf-8"?>
<!-- Generator: Adobe Illustrator 23.1.1, SVG Export Plug-In . SVG Version: 6.00 Build 0)  -->
<svg version="1.1" id="Camada_1" xmlns="http://www.w3.org/2000/svg" xmlns:xlink="http://www.w3.org/1999/xlink" x="0px" y="0px"
	 viewBox="0 0 141.73 141.73" style="enable-background:new 0 0 141.73 141.73;" xml:space="preserve">
<style type="text/css">
	.st0{fill:#834F42;}
</style>
<g>
	<g>
		<g>
			<g>
				<path d="M107.58,113.86c-4.61,0-7.71-1.73-10.71-3.4c-5.64-3.16-10.73-5.28-17.18-5.28c-2.7,0-5.49,0.36-8.54,1.11l-6.77,1.64
					l5.05-4.67c4.51-4.16,10.73-7.71,17.79-11.6c7.75-4.26,15.79-8.7,22.11-15c8.55-8.49,12.71-17.18,12.71-26.6
					c0-19.38-16.34-35.16-36.41-35.16c-20.09,0-36.42,15.79-36.42,35.16c0,5.16,1.14,10.14,3.39,14.81
					c1.58,3.27,3.68,6.29,6.24,8.98l10.6-10.44c-1.27-1.42-2.31-2.99-3.12-4.69c-1.32-2.74-1.98-5.65-1.98-8.66
					c0-11.34,9.55-20.57,21.29-20.57c11.73,0,21.27,9.23,21.27,20.57c0,5.53-2.68,10.75-8.43,16.44
					c-4.85,4.85-11.61,8.56-18.77,12.49c-14.72,8.11-33.03,18.19-33.55,41.79l12.36,6.76c9.35-5.33,15.79-7.7,20.83-7.7
					c4.15,0,7.08,1.63,9.9,3.21c6.07,3.39,11.18,5.49,18.01,5.49c7.45,0,16.35-2.68,27.21-8.18l-7.21-12.83
					C118.77,111.85,112.52,113.86,107.58,113.86z"/>
			</g>
			<path class="st0" d="M42.8,27.78c-0.07-4.86-0.08-9.73,0.04-14.59C23.15,13.63,7.26,29.19,7.26,48.32
				c0,5.14,1.14,10.13,3.4,14.81c1.57,3.27,3.66,6.28,6.23,8.97l10.62-10.44c-1.28-1.42-2.33-2.99-3.14-4.69
				c-1.31-2.73-1.98-5.64-1.98-8.65C22.39,37.25,31.48,28.24,42.8,27.78z"/>
		</g>
	</g>
</g>
</svg>
