<?xml version="1.0" encoding="utf-8"?>
<!-- Generator: Adobe Illustrator 24.0.0, SVG Export Plug-In . SVG Version: 6.00 Build 0)  -->
<svg version="1.0" id="Layer_1" xmlns="http://www.w3.org/2000/svg" xmlns:xlink="http://www.w3.org/1999/xlink" x="0px" y="0px"
	 viewBox="0 0 53.87 53.9" style="enable-background:new 0 0 53.87 53.9;" xml:space="preserve">
<path d="M53.2,51.16L41.07,39.03l0.55-0.61c7.73-9.41,7.11-22.96-1.45-31.52C35.73,2.45,29.82,0,23.53,0
	c-6.29,0-12.2,2.45-16.65,6.9c-9.17,9.18-9.17,24.11,0,33.29c4.45,4.45,10.36,6.9,16.65,6.9c5.41,0,10.55-1.88,14.88-5.44l0.6-0.54
	l12.12,12.12c0.71,0.71,1.62,0.97,2.33,0.25c0.34-0.35,0.4-0.54,0.4-1.03S53.55,51.5,53.2,51.16z M39.6,37.06
	c-0.14,0.17-0.28,0.34-0.41,0.52c-0.23,0.3-0.46,0.6-0.74,0.88c-0.29,0.29-0.61,0.54-0.91,0.77c-0.19,0.14-0.34,0.26-0.49,0.39
	c-3.89,3.29-8.57,5.02-13.52,5.02c-5.64,0-10.94-2.2-14.92-6.18c-3.98-3.98-6.17-9.27-6.17-14.92S4.63,12.6,8.61,8.62
	c3.98-3.98,9.28-6.17,14.92-6.17s10.93,2.19,14.92,6.18C46.21,16.39,46.7,28.61,39.6,37.06L39.6,37.06z"/>
</svg>
